<svg width="16" height="16" viewBox="0 0 16 16" fill="none" xmlns="http://www.w3.org/2000/svg">
<path d="M4.25173 7.99885C5.88398 7.99885 7.27376 9.04244 7.78868 10.4985H15.5V12.9981H7.78743C7.55849 13.6466 7.15565 14.2197 6.62295 14.6547C6.09025 15.0897 5.44821 15.3698 4.76702 15.4645C4.08583 15.5592 3.39172 15.4647 2.76058 15.1915C2.12945 14.9183 1.58559 14.4768 1.18847 13.9153C0.79135 13.3538 0.55626 12.6939 0.508904 12.0078C0.461547 11.3217 0.603749 10.6358 0.919959 10.025C1.23617 9.41429 1.71421 8.90226 2.30183 8.54491C2.88944 8.18756 3.56399 7.99866 4.25173 7.99885V7.99885ZM4.25173 10.4985C3.92026 10.4985 3.60236 10.6301 3.36798 10.8645C3.13359 11.0989 3.00192 11.4168 3.00192 11.7483C3.00192 12.0797 3.13359 12.3976 3.36798 12.632C3.60236 12.8664 3.92026 12.9981 4.25173 12.9981C4.5832 12.9981 4.90109 12.8664 5.13547 12.632C5.36986 12.3976 5.50153 12.0797 5.50153 11.7483C5.50153 11.4168 5.36986 11.0989 5.13547 10.8645C4.90109 10.6301 4.5832 10.4985 4.25173 10.4985ZM11.7506 0.5C12.4379 0.500131 13.112 0.689209 13.6992 1.04657C14.2864 1.40393 14.764 1.91582 15.0799 2.52629C15.3958 3.13676 15.5378 3.82232 15.4904 4.50804C15.4429 5.19376 15.2079 5.85326 14.811 6.41445C14.4141 6.97564 13.8706 7.41692 13.2399 7.69007C12.6091 7.96323 11.9154 8.05774 11.2346 7.96327C10.5537 7.8688 9.91196 7.589 9.3794 7.15444C8.84684 6.71988 8.44399 6.14728 8.21487 5.49923H0.502302V2.99962H8.21362C8.47234 2.26839 8.95141 1.63535 9.58484 1.18769C10.2183 0.740037 10.9749 0.499776 11.7506 0.5V0.5ZM11.7506 2.99962C11.4191 2.99962 11.1012 3.13129 10.8668 3.36568C10.6324 3.60006 10.5008 3.91795 10.5008 4.24942C10.5008 4.58089 10.6324 4.89879 10.8668 5.13317C11.1012 5.36756 11.4191 5.49923 11.7506 5.49923C12.082 5.49923 12.3999 5.36756 12.6343 5.13317C12.8687 4.89879 13.0004 4.58089 13.0004 4.24942C13.0004 3.91795 12.8687 3.60006 12.6343 3.36568C12.3999 3.13129 12.082 2.99962 11.7506 2.99962V2.99962Z" fill="#222222"/>
</svg>
