<svg width="16" height="16" viewBox="0 0 16 16" fill="none" xmlns="http://www.w3.org/2000/svg">
<g clip-path="url(#clip0_20_57)">
<path d="M5.74988 9.49885C7.38213 9.49885 8.77192 10.5424 9.28684 11.9985H16.9982V14.4981H9.28559C9.05665 15.1466 8.6538 15.7197 8.1211 16.1547C7.58841 16.5897 6.94636 16.8698 6.26517 16.9645C5.58398 17.0592 4.88987 16.9647 4.25874 16.6915C3.6276 16.4183 3.08374 15.9768 2.68662 15.4153C2.2895 14.8538 2.05441 14.1939 2.00706 13.5078C1.9597 12.8217 2.1019 12.1358 2.41811 11.525C2.73432 10.9143 3.21237 10.4023 3.79998 10.0449C4.38759 9.68756 5.06214 9.49866 5.74988 9.49885V9.49885ZM5.74988 11.9985C5.41841 11.9985 5.10052 12.1301 4.86613 12.3645C4.63175 12.5989 4.50007 12.9168 4.50007 13.2483C4.50007 13.5797 4.63175 13.8976 4.86613 14.132C5.10052 14.3664 5.41841 14.4981 5.74988 14.4981C6.08135 14.4981 6.39924 14.3664 6.63363 14.132C6.86801 13.8976 6.99969 13.5797 6.99969 13.2483C6.99969 12.9168 6.86801 12.5989 6.63363 12.3645C6.39924 12.1301 6.08135 11.9985 5.74988 11.9985ZM13.2487 2C13.9361 2.00013 14.6102 2.18921 15.1973 2.54657C15.7845 2.90393 16.2621 3.41582 16.578 4.02629C16.8939 4.63676 17.0359 5.32232 16.9885 6.00804C16.9411 6.69376 16.7061 7.35326 16.3092 7.91445C15.9123 8.47564 15.3688 8.91692 14.738 9.19007C14.1073 9.46323 13.4136 9.55774 12.7327 9.46327C12.0519 9.3688 11.4101 9.089 10.8776 8.65444C10.345 8.21988 9.94214 7.64728 9.71302 6.99923H2.00046V4.49962H9.71177C9.97049 3.76839 10.4496 3.13535 11.083 2.68769C11.7164 2.24004 12.4731 1.99978 13.2487 2V2ZM13.2487 4.49962C12.9173 4.49962 12.5994 4.63129 12.365 4.86568C12.1306 5.10006 11.9989 5.41795 11.9989 5.74942C11.9989 6.08089 12.1306 6.39879 12.365 6.63317C12.5994 6.86756 12.9173 6.99923 13.2487 6.99923C13.5802 6.99923 13.8981 6.86756 14.1325 6.63317C14.3669 6.39879 14.4985 6.08089 14.4985 5.74942C14.4985 5.41795 14.3669 5.10006 14.1325 4.86568C13.8981 4.63129 13.5802 4.49962 13.2487 4.49962V4.49962Z" fill="#222222"/>
</g>
<defs>
<clipPath id="clip0_20_57">
<rect width="16" height="16" fill="white"/>
</clipPath>
</defs>
</svg>
