<svg width="12" height="13" viewBox="0 0 12 13" fill="none" xmlns="http://www.w3.org/2000/svg">
<g clip-path="url(#clip0_20_201)">
<path fill-rule="evenodd" clip-rule="evenodd" d="M5.66024 1.09208L4.11374 4.42395L0.416242 4.9002C0.344975 4.90927 0.277811 4.93861 0.222742 4.98475C0.167672 5.03088 0.127013 5.09187 0.105603 5.16044C0.0841922 5.22902 0.0829308 5.3023 0.101969 5.37158C0.121007 5.44085 0.159542 5.5032 0.212992 5.5512L2.94787 8.01308L2.21099 11.7076C2.19681 11.7784 2.20337 11.8518 2.22989 11.9189C2.25641 11.9861 2.30176 12.0442 2.36049 12.0862C2.41922 12.1282 2.48883 12.1524 2.56097 12.1558C2.6331 12.1592 2.70468 12.1417 2.76712 12.1054L5.99999 10.2316L9.23437 12.1054C9.29676 12.1416 9.36826 12.159 9.44028 12.1555C9.5123 12.152 9.5818 12.1279 9.64045 12.0859C9.69909 12.044 9.7444 11.986 9.77095 11.919C9.7975 11.8519 9.80415 11.7787 9.79012 11.708L9.05324 8.01308L11.7881 5.5512C11.8414 5.5032 11.8799 5.44091 11.8989 5.37172C11.9178 5.30253 11.9166 5.22935 11.8952 5.16086C11.8739 5.09237 11.8333 5.03144 11.7784 4.9853C11.7234 4.93917 11.6564 4.90976 11.5852 4.90058L7.88774 4.42395L6.34012 1.09208C6.31001 1.02724 6.262 0.972353 6.20174 0.933894C6.14148 0.895434 6.07148 0.875 5.99999 0.875C5.9285 0.875 5.85851 0.895434 5.79825 0.933894C5.73798 0.972353 5.68997 1.02724 5.65987 1.09208H5.66024Z" fill="#717171"/>
</g>
<defs>
<clipPath id="clip0_20_201">
<rect width="12" height="12" fill="white" transform="translate(0 0.5)"/>
</clipPath>
</defs>
</svg>
