<svg width="32" height="31" viewBox="0 0 32 31" fill="none" xmlns="http://www.w3.org/2000/svg">
<path d="M15.7 0.200012C7.26302 0.200012 0.400024 7.06301 0.400024 15.5C0.400024 23.937 7.26302 30.8 15.7 30.8C24.137 30.8 31 23.937 31 15.5C31 7.06301 24.137 0.200012 15.7 0.200012ZM15.7 28.2C11.679 28.2 8.09502 26.316 5.76702 23.39C7.38863 21.2682 9.65072 19.7253 12.218 18.99C11.2936 18.4028 10.5324 17.5918 10.0048 16.6321C9.47727 15.6724 9.20045 14.5951 9.20002 13.5C9.20002 9.91601 12.116 7.00001 15.7 7.00001C19.284 7.00001 22.2 9.91601 22.2 13.5C22.1991 14.5953 21.922 15.6727 21.3943 16.6324C20.8666 17.5922 20.1054 18.4034 19.181 18.991C21.7488 19.7258 24.0114 21.2688 25.633 23.391C23.305 26.316 19.721 28.2 15.7 28.2Z" fill="#717171"/>
<path d="M32 4.20001C32 6.40915 30.2092 8.20001 28 8.20001C25.7909 8.20001 24 6.40915 24 4.20001C24 1.99087 25.7909 0.200012 28 0.200012C30.2092 0.200012 32 1.99087 32 4.20001Z" fill="#1000CC"/>
</svg>
