<svg width="17" height="16" viewBox="0 0 17 16" fill="none" xmlns="http://www.w3.org/2000/svg">
<path d="M8.25 15.25C12.2541 15.25 15.5 12.0041 15.5 8C15.5 3.99594 12.2541 0.75 8.25 0.75M8.25 15.25C4.24594 15.25 1 12.0041 1 8C1 3.99594 4.24594 0.75 8.25 0.75M8.25 15.25C9.49264 15.25 11.5 12.5 11.5 8C11.5 3.5 9.49264 0.75 8.25 0.75M8.25 15.25C7.00736 15.25 5 12.5 5 8C5 3.5 7.00736 0.75 8.25 0.75M1.25 8H15.25" stroke="#4B5563" stroke-width="1.5" stroke-linecap="round" stroke-linejoin="round"/>
</svg>
