<svg width="18" height="18" viewBox="0 0 18 18" fill="none" xmlns="http://www.w3.org/2000/svg">
<path d="M9.00038 0.272736C6.63027 0.272736 6.33282 0.283099 5.40194 0.325463C4.47288 0.368008 3.83872 0.515099 3.28383 0.730917C2.70984 0.953827 2.22295 1.25201 1.73787 1.73728C1.25243 2.22237 0.95426 2.70928 0.73063 3.2831C0.514273 3.83819 0.367005 4.47255 0.325188 5.40128C0.283553 6.33219 0.272644 6.62983 0.272644 9.00001C0.272644 11.3702 0.283189 11.6667 0.32537 12.5976C0.368096 13.5267 0.515182 14.1609 0.730812 14.7158C0.953896 15.2898 1.25207 15.7767 1.73733 16.2618C2.22222 16.7473 2.70912 17.0462 3.28273 17.2691C3.83799 17.4849 4.47233 17.632 5.40122 17.6746C6.3321 17.7169 6.62936 17.7273 8.99929 17.7273C11.3696 17.7273 11.6661 17.7169 12.597 17.6746C13.5261 17.632 14.161 17.4849 14.7162 17.2691C15.29 17.0462 15.7762 16.7473 16.2611 16.2618C16.7465 15.7767 17.0447 15.2898 17.2683 14.716C17.4828 14.1609 17.6301 13.5266 17.6738 12.5978C17.7156 11.6669 17.7265 11.3702 17.7265 9.00001C17.7265 6.62983 17.7156 6.33237 17.6738 5.40146C17.6301 4.47237 17.4828 3.83819 17.2683 3.28328C17.0447 2.70928 16.7465 2.22237 16.2611 1.73728C15.7756 1.25183 15.2902 0.953645 14.7157 0.730917C14.1593 0.515099 13.5248 0.368008 12.5957 0.325463C11.6648 0.283099 11.3685 0.272736 8.99765 0.272736H9.00038ZM8.21749 1.84546C8.44985 1.8451 8.70912 1.84546 9.00038 1.84546C11.3305 1.84546 11.6067 1.85383 12.5268 1.89564C13.3777 1.93455 13.8395 2.07674 14.1471 2.19619C14.5544 2.35437 14.8447 2.54346 15.15 2.84892C15.4555 3.15437 15.6445 3.44528 15.8031 3.85255C15.9225 4.15983 16.0649 4.62164 16.1036 5.47255C16.1454 6.39255 16.1545 6.66892 16.1545 8.99801C16.1545 11.3271 16.1454 11.6035 16.1036 12.5235C16.0647 13.3744 15.9225 13.8362 15.8031 14.1435C15.6449 14.5507 15.4555 14.8407 15.15 15.146C14.8446 15.4515 14.5546 15.6406 14.1471 15.7987C13.8399 15.9187 13.3777 16.0606 12.5268 16.0995C11.6068 16.1413 11.3305 16.1504 9.00038 16.1504C6.67009 16.1504 6.39391 16.1413 5.47394 16.0995C4.62306 16.0602 4.16125 15.918 3.85344 15.7986C3.44618 15.6404 3.15528 15.4513 2.84984 15.1458C2.54439 14.8404 2.35531 14.5502 2.19677 14.1427C2.07732 13.8355 1.93496 13.3736 1.89623 12.5227C1.85441 11.6027 1.84605 11.3264 1.84605 8.99583C1.84605 6.66528 1.85441 6.39037 1.89623 5.47037C1.93514 4.61946 2.07732 4.15764 2.19677 3.85001C2.35494 3.44274 2.54439 3.15183 2.84984 2.84637C3.15528 2.54092 3.44618 2.35183 3.85344 2.19328C4.16107 2.07328 4.62306 1.93146 5.47394 1.89237C6.27901 1.85601 6.591 1.8451 8.21749 1.84328V1.84546ZM13.6588 3.29455C13.0806 3.29455 12.6115 3.7631 12.6115 4.34146C12.6115 4.91964 13.0806 5.38874 13.6588 5.38874C14.2369 5.38874 14.706 4.91964 14.706 4.34146C14.706 3.76328 14.2369 3.29419 13.6588 3.29419V3.29455ZM9.00038 4.51819C6.52536 4.51819 4.5187 6.52492 4.5187 9.00001C4.5187 11.4751 6.52536 13.4809 9.00038 13.4809C11.4754 13.4809 13.4813 11.4751 13.4813 9.00001C13.4813 6.52492 11.4752 4.51819 9.0002 4.51819H9.00038ZM9.00038 6.09092C10.6069 6.09092 11.9094 7.39328 11.9094 9.00001C11.9094 10.6066 10.6069 11.9091 9.00038 11.9091C7.3937 11.9091 6.09138 10.6066 6.09138 9.00001C6.09138 7.39328 7.3937 6.09092 9.00038 6.09092V6.09092Z" fill="#4B5563"/>
</svg>
