<svg width="17" height="15" viewBox="0 0 17 15" fill="none" xmlns="http://www.w3.org/2000/svg">
<path fill-rule="evenodd" clip-rule="evenodd" d="M14.6615 4.07611C14.6673 4.22601 14.6692 4.37585 14.6692 4.52575C14.6692 9.07049 11.4722 14.3171 5.626 14.3171C3.83015 14.3171 2.16026 13.7448 0.753296 12.7704C1.002 12.7977 1.25459 12.8181 1.51105 12.8181C3.00006 12.8181 4.37149 12.2661 5.45934 11.3395C4.06852 11.319 2.89412 10.3174 2.48908 8.95466C2.68352 8.99554 2.88377 9.01604 3.08855 9.01604C3.3773 9.01604 3.65766 8.97521 3.9264 8.89344C2.47098 8.58001 1.37474 7.19005 1.37474 5.52069C1.37474 5.50025 1.37474 5.4934 1.37474 5.47977C1.80368 5.73188 2.29463 5.88851 2.81594 5.90895C1.96194 5.28891 1.40057 4.23281 1.40057 3.04041C1.40057 2.41355 1.5569 1.82073 1.83209 1.3097C3.39926 3.39469 5.74229 4.76427 8.38375 4.90736C8.32948 4.65525 8.3017 4.38958 8.3017 4.12385C8.3017 2.22282 9.72481 0.682892 11.4806 0.682892C12.3947 0.682892 13.2203 1.09859 13.7997 1.76633C14.5252 1.61643 15.2048 1.33027 15.8197 0.935079C15.5814 1.7391 15.0781 2.41351 14.4205 2.83596C15.0639 2.7542 15.6776 2.57037 16.2467 2.29782C15.8197 2.98601 15.2823 3.59233 14.6615 4.07611Z" fill="#4B5563"/>
</svg>
